# xmcd
#
# Track frame offsets:
#	150
#	20473
#	35945
#	53527
#	73850
#	106365
#	136825
#	152245
#	170707
#	188812
#	205494
#	225624
#	241604
#	253289
#	269282
#	284644
#	307976
#	334967
#
# Disc length: 4719 seconds
#
# Revision: 0
# Processed by: cddbd v1.5.2PL0 Copyright (c) Steve Scherf et al.
# Submitted via: dBpowerAMP V4.0
#
DISCID=10126d12
DTITLE=Various Artist - fouad
DYEAR=2006
DGENRE=Club
TTITLE0=Track01 - black
TTITLE1=Track02 - blackff
TTITLE2=Track03 - blackgt
TTITLE3=Track04 - loving
TTITLE4=Track05 - blackrt
TTITLE5=Track06 - blackoi
TTITLE6=Track07 - blackjh
TTITLE7=Track08 - blackjjj
TTITLE8=Track09 - blackgf
TTITLE9=Track10 - blackdty
TTITLE10=Track11 - blackkkk
TTITLE11=Track12 - blacklll
TTITLE12=Track13 - blackppp
TTITLE13=Track14 - blackppo
TTITLE14=Track15 - blackrez
TTITLE15=Track16 - blackzzz
TTITLE16=Track17 - blackaaa
TTITLE17=Track18 - blackpkj
EXTD=
EXTT0=
EXTT1=
EXTT2=
EXTT3=
EXTT4=
EXTT5=
EXTT6=
EXTT7=
EXTT8=
EXTT9=
EXTT10=
EXTT11=
EXTT12=
EXTT13=
EXTT14=
EXTT15=
EXTT16=
EXTT17=
PLAYORDER=
